<svg xmlns="http://www.w3.org/2000/svg" viewBox="0 0 960 540" width="960" height="540" font-family="ui-monospace, SF Mono, Menlo, monospace">
<rect width="960" height="540" fill="#0d1117"/>
<text x="80" y="32" fill="#f0f6fc" font-size="18" font-weight="700">PACT benchmark · 2026-04-19 · heuristic</text>
<text x="80" y="52" fill="#8b949e" font-size="12">token reduction ratio (baseline / pact), per task</text>
<line x1="80" y1="420" x2="920" y2="420" stroke="#21262d" stroke-width="1"/>
<text x="70" y="424" fill="#8b949e" font-size="10" text-anchor="end">0.0x</text>
<line x1="80" y1="348.8" x2="920" y2="348.8" stroke="#21262d" stroke-width="1"/>
<text x="70" y="352.8" fill="#8b949e" font-size="10" text-anchor="end">1.0x</text>
<line x1="80" y1="277.6" x2="920" y2="277.6" stroke="#21262d" stroke-width="1"/>
<text x="70" y="281.6" fill="#8b949e" font-size="10" text-anchor="end">2.0x</text>
<line x1="80" y1="206.4" x2="920" y2="206.4" stroke="#21262d" stroke-width="1"/>
<text x="70" y="210.4" fill="#8b949e" font-size="10" text-anchor="end">3.0x</text>
<line x1="80" y1="135.2" x2="920" y2="135.2" stroke="#21262d" stroke-width="1"/>
<text x="70" y="139.2" fill="#8b949e" font-size="10" text-anchor="end">4.0x</text>
<line x1="80" y1="64" x2="920" y2="64" stroke="#21262d" stroke-width="1"/>
<text x="70" y="68" fill="#8b949e" font-size="10" text-anchor="end">5.0x</text>
<rect x="90.69090909090909" y="234.88" width="54.98181818181818" height="185.12" fill="#d29922" opacity="0.82"/>
<text x="118.18181818181817" y="228.88" fill="#f0f6fc" font-size="11" text-anchor="middle" font-weight="600">2.6x</text>
<text x="118.18181818181817" y="436" fill="#8b949e" font-size="10" text-anchor="end" transform="rotate(-40, 118.18181818181817, 436)">auth-refactor</text>
<rect x="167.05454545454546" y="270.48" width="54.98181818181818" height="149.52" fill="#d29922" opacity="0.82"/>
<text x="194.54545454545456" y="264.48" fill="#f0f6fc" font-size="11" text-anchor="middle" font-weight="600">2.1x</text>
<text x="194.54545454545456" y="436" fill="#8b949e" font-size="10" text-anchor="end" transform="rotate(-40, 194.54545454545456, 436)">race-condition-debug</text>
<rect x="243.4181818181818" y="263.36" width="54.98181818181818" height="156.64000000000001" fill="#d29922" opacity="0.82"/>
<text x="270.9090909090909" y="257.36" fill="#f0f6fc" font-size="11" text-anchor="middle" font-weight="600">2.2x</text>
<text x="270.9090909090909" y="436" fill="#8b949e" font-size="10" text-anchor="end" transform="rotate(-40, 270.9090909090909, 436)">feature-search</text>
<rect x="319.78181818181815" y="291.84000000000003" width="54.98181818181818" height="128.16" fill="#f85149" opacity="0.82"/>
<text x="347.27272727272725" y="285.84000000000003" fill="#f0f6fc" font-size="11" text-anchor="middle" font-weight="600">1.8x</text>
<text x="347.27272727272725" y="436" fill="#8b949e" font-size="10" text-anchor="end" transform="rotate(-40, 347.27272727272725, 436)">perf-optimization</text>
<rect x="396.1454545454545" y="277.6" width="54.98181818181818" height="142.4" fill="#d29922" opacity="0.82"/>
<text x="423.6363636363636" y="271.6" fill="#f0f6fc" font-size="11" text-anchor="middle" font-weight="600">2.0x</text>
<text x="423.6363636363636" y="436" fill="#8b949e" font-size="10" text-anchor="end" transform="rotate(-40, 423.6363636363636, 436)">migration-postgres</text>
<rect x="472.5090909090909" y="234.88" width="54.98181818181818" height="185.12" fill="#d29922" opacity="0.82"/>
<text x="500" y="228.88" fill="#f0f6fc" font-size="11" text-anchor="middle" font-weight="600">2.6x</text>
<text x="500" y="436" fill="#8b949e" font-size="10" text-anchor="end" transform="rotate(-40, 500, 436)">security-audit</text>
<rect x="548.8727272727273" y="227.76" width="54.98181818181818" height="192.24" fill="#d29922" opacity="0.82"/>
<text x="576.3636363636364" y="221.76" fill="#f0f6fc" font-size="11" text-anchor="middle" font-weight="600">2.7x</text>
<text x="576.3636363636364" y="436" fill="#8b949e" font-size="10" text-anchor="end" transform="rotate(-40, 576.3636363636364, 436)">api-integration</text>
<rect x="625.2363636363636" y="263.36" width="54.98181818181818" height="156.64000000000001" fill="#d29922" opacity="0.82"/>
<text x="652.7272727272727" y="257.36" fill="#f0f6fc" font-size="11" text-anchor="middle" font-weight="600">2.2x</text>
<text x="652.7272727272727" y="436" fill="#8b949e" font-size="10" text-anchor="end" transform="rotate(-40, 652.7272727272727, 436)">testing-coverage</text>
<rect x="701.6" y="284.72" width="54.98181818181818" height="135.28" fill="#f85149" opacity="0.82"/>
<text x="729.0909090909091" y="278.72" fill="#f0f6fc" font-size="11" text-anchor="middle" font-weight="600">1.9x</text>
<text x="729.0909090909091" y="436" fill="#8b949e" font-size="10" text-anchor="end" transform="rotate(-40, 729.0909090909091, 436)">bug-memory-leak</text>
<rect x="777.9636363636364" y="227.76" width="54.98181818181818" height="192.24" fill="#d29922" opacity="0.82"/>
<text x="805.4545454545455" y="221.76" fill="#f0f6fc" font-size="11" text-anchor="middle" font-weight="600">2.7x</text>
<text x="805.4545454545455" y="436" fill="#8b949e" font-size="10" text-anchor="end" transform="rotate(-40, 805.4545454545455, 436)">refactor-monolith</text>
<rect x="854.3272727272728" y="113.84000000000003" width="54.98181818181818" height="306.15999999999997" fill="#3fb950" opacity="0.82"/>
<text x="881.8181818181819" y="107.84000000000003" fill="#f0f6fc" font-size="11" text-anchor="middle" font-weight="600">4.3x</text>
<text x="881.8181818181819" y="436" fill="#8b949e" font-size="10" text-anchor="end" transform="rotate(-40, 881.8181818181819, 436)">long-session-monorepo</text>
<line x1="80" y1="420" x2="920" y2="420" stroke="#8b949e" stroke-width="1"/>
<line x1="80" y1="64" x2="80" y2="420" stroke="#8b949e" stroke-width="1"/>
<text x="80" y="512" fill="#8b949e" font-size="11">mode: heuristic  ·  tasks: 11  ·  avg: 2.5x  ·  total: 2.8x  (163,412 → 59,097 tokens)  ·  completion delta: 0.0pp</text>
</svg>