<svg xmlns="http://www.w3.org/2000/svg" viewBox="0 0 960 480" width="960" height="480" font-family="ui-monospace, SF Mono, Menlo, monospace">
<rect width="960" height="480" fill="#0d1117"/>
<text x="80" y="32" fill="#f0f6fc" font-size="18" font-weight="700">PACT compression scales with session length</text>
<text x="80" y="52" fill="#8b949e" font-size="12">ratio vs turn count · baseline is O(N²) per-turn sum, PACT is O(N) — the gap widens</text>
<line x1="80" y1="72" x2="920" y2="72" stroke="#21262d"/>
<text x="70" y="76" fill="#8b949e" font-size="10" text-anchor="end">5.8x</text>
<line x1="80" y1="137.6" x2="920" y2="137.6" stroke="#21262d"/>
<text x="70" y="141.6" fill="#8b949e" font-size="10" text-anchor="end">4.6x</text>
<line x1="80" y1="203.2" x2="920" y2="203.2" stroke="#21262d"/>
<text x="70" y="207.2" fill="#8b949e" font-size="10" text-anchor="end">3.5x</text>
<line x1="80" y1="268.79999999999995" x2="920" y2="268.79999999999995" stroke="#21262d"/>
<text x="70" y="272.79999999999995" fill="#8b949e" font-size="10" text-anchor="end">2.3x</text>
<line x1="80" y1="334.4" x2="920" y2="334.4" stroke="#21262d"/>
<text x="70" y="338.4" fill="#8b949e" font-size="10" text-anchor="end">1.2x</text>
<line x1="80" y1="400" x2="920" y2="400" stroke="#21262d"/>
<text x="70" y="404" fill="#8b949e" font-size="10" text-anchor="end">0.0x</text>
<text x="80" y="420" fill="#8b949e" font-size="10" text-anchor="middle">0</text>
<text x="248" y="420" fill="#8b949e" font-size="10" text-anchor="middle">11</text>
<text x="416" y="420" fill="#8b949e" font-size="10" text-anchor="middle">21</text>
<text x="584" y="420" fill="#8b949e" font-size="10" text-anchor="middle">32</text>
<text x="752" y="420" fill="#8b949e" font-size="10" text-anchor="middle">42</text>
<text x="920" y="420" fill="#8b949e" font-size="10" text-anchor="middle">53</text>
<polyline points="80,400 112,390.1885217391304 144,380.3770434782609 176,370.5655652173913 208,360.75408695652175 240,350.9426086956522 272,341.1311304347826 304,331.319652173913 336,321.5081739130435 368,311.69669565217396 400,301.88521739130437 432,292.0737391304348 464,282.26226086956524 496,272.4507826086957 528,262.63930434782606 560,252.82782608695655 592,243.01634782608696 624,233.2048695652174 656,223.39339130434786 688,213.5819130434783 720,203.77043478260873 752,193.95895652173914 784,184.14747826086958 816,174.336 848,164.52452173913042 880,154.71304347826086 912,144.90156521739135" fill="none" stroke="#d29922" stroke-width="1.5" stroke-dasharray="4 4" opacity="0.7"/>
<text x="684.8" y="206.56306086956525" fill="#d29922" font-size="11" font-weight="600">linear fit · ratio = 0.086 × turns</text>
<circle cx="320" cy="251.68695652173912" r="4" fill="#58a6ff" stroke="#0d1117" stroke-width="1.5"/>
<circle cx="288" cy="280.2086956521739" r="4" fill="#58a6ff" stroke="#0d1117" stroke-width="1.5"/>
<circle cx="336" cy="274.5043478260869" r="4" fill="#58a6ff" stroke="#0d1117" stroke-width="1.5"/>
<circle cx="304" cy="297.32173913043476" r="4" fill="#58a6ff" stroke="#0d1117" stroke-width="1.5"/>
<circle cx="336" cy="285.9130434782609" r="4" fill="#58a6ff" stroke="#0d1117" stroke-width="1.5"/>
<circle cx="400" cy="251.68695652173912" r="4" fill="#58a6ff" stroke="#0d1117" stroke-width="1.5"/>
<circle cx="400" cy="245.98260869565217" r="4" fill="#58a6ff" stroke="#0d1117" stroke-width="1.5"/>
<circle cx="352" cy="274.5043478260869" r="4" fill="#58a6ff" stroke="#0d1117" stroke-width="1.5"/>
<circle cx="336" cy="291.61739130434785" r="4" fill="#58a6ff" stroke="#0d1117" stroke-width="1.5"/>
<circle cx="400" cy="245.98260869565217" r="4" fill="#58a6ff" stroke="#0d1117" stroke-width="1.5"/>
<circle cx="880" cy="154.71304347826086" r="6" fill="#3fb950" stroke="#0d1117" stroke-width="1.5"/>
<text x="870" y="144.71304347826086" fill="#3fb950" font-size="11" font-weight="600" text-anchor="end">4.3x @ 50 turns</text>
<line x1="80" y1="400" x2="920" y2="400" stroke="#8b949e"/>
<line x1="80" y1="72" x2="80" y2="400" stroke="#8b949e"/>
<text x="500" y="460" fill="#8b949e" font-size="11" text-anchor="middle">turns per session</text>
<text x="24" y="236" fill="#8b949e" font-size="11" text-anchor="middle" transform="rotate(-90, 24, 236)">compression ratio</text>
<text x="920" y="86" fill="#8b949e" font-size="11" text-anchor="end">projected @ 200 turns: ~17x</text>
</svg>